# xmcd
#
# Track frame offsets:
#	150
#	11267
#	22285
#	35585
#	48927
#	59285
#	72685
#	85745
#	97842
#	109680
#	120755
#
# Disc length: 1766 seconds
#
# Revision: 0
# Processed by: cddbd v1.5.1PL2 Copyright (c) Steve Scherf et al.
# Submitted via: MusicWizard 7.2.0
#
DISCID=8406e40b
DTITLE=Acklin, Barbara - Love Makes A Woman
DYEAR=2000
DGENRE=Soul
TTITLE0=What The World Needs Now Is Love
TTITLE1=The Look Of Love
TTITLE2=The Old Matchmaker
TTITLE3=Come 6 See Me Baby
TTITLE4=I´ve Got You Baby
TTITLE5=Love Makes A Woman
TTITLE6=Please Sunrise Please
TTITLE7=Your Sweet Loving
TTITLE8=Yes I See The Love (I Missed)
TTITLE9=To Sir With Love
TTITLE10=Be By My Side
EXTD=P:1968
EXTT0=
EXTT1=
EXTT2=
EXTT3=
EXTT4=
EXTT5=
EXTT6=
EXTT7=
EXTT8=
EXTT9=
EXTT10=
PLAYORDER=
